<svg version="1.1" xmlns="http://www.w3.org/2000/svg" viewBox="0 0 1061.170398508506 405.71429443359375" width="1061.170398508506" height="405.71429443359375" class="excalidraw-svg">
  <!-- svg-source:excalidraw -->
  
  <defs>
    <style class="style-fonts">
      @font-face {
        font-family: "Virgil";
        src: url("https://excalidraw.com/Virgil.woff2");
      }
      @font-face {
        font-family: "Cascadia";
        src: url("https://excalidraw.com/Cascadia.woff2");
      }
      @font-face {
        font-family: "Assistant";
        src: url("https://excalidraw.com/Assistant-Regular.woff2");
      }
    </style>
    
  </defs>
  <rect x="0" y="0" width="1061.170398508506" height="405.71429443359375" fill="#ffffff"/><g stroke-linecap="round" transform="translate(41.80519386057745 10) rotate(0 362.9464416503906 192.85714721679688)"><path d="M517.06 18.29 C542.77 21.41, 565.97 32.81, 587.05 41.58 C608.13 50.35, 626.59 60.03, 643.54 70.89 C660.49 81.75, 676.55 93.93, 688.73 106.74 C700.92 119.54, 710.47 133.68, 716.63 147.72 C722.79 161.76, 725.55 176.8, 725.72 190.98 C725.88 205.16, 723.3 218.78, 717.62 232.82 C711.94 246.85, 703.02 261.94, 691.64 275.18 C680.27 288.42, 665.79 300.95, 649.37 312.25 C632.94 323.54, 613.94 334.07, 593.1 342.93 C572.27 351.8, 548.5 359.31, 524.37 365.45 C500.24 371.6, 474.69 376.34, 448.31 379.81 C421.93 383.29, 393.26 385.95, 366.07 386.32 C338.88 386.69, 311.54 385.22, 285.19 382.05 C258.83 378.87, 232.18 373.63, 207.93 367.29 C183.68 360.95, 160.79 352.85, 139.69 343.99 C118.58 335.14, 98.33 325.12, 81.3 314.15 C64.26 303.18, 49.48 290.99, 37.46 278.19 C25.44 265.39, 15.4 251.37, 9.17 237.33 C2.95 223.29, 0.45 208.18, 0.13 193.92 C-0.18 179.67, 1.41 165.69, 7.27 151.81 C13.12 137.92, 23.62 123.56, 35.26 110.61 C46.91 97.66, 60.87 85.46, 77.14 74.11 C93.42 62.76, 112.06 51.4, 132.9 42.53 C153.74 33.67, 177.84 27.1, 202.17 20.94 C226.51 14.77, 252.92 9.01, 278.93 5.54 C304.94 2.07, 331.23 0.31, 358.23 0.12 C385.23 -0.07, 412.91 0.91, 440.95 4.4 C469 7.89, 511.17 17.22, 526.5 21.05 C541.82 24.88, 535.61 24.56, 532.91 27.39 M444.99 4.38 C471.01 4.56, 496.8 13.04, 521.05 19.47 C545.29 25.9, 569.35 33.75, 590.46 42.94 C611.56 52.13, 630.88 63.37, 647.68 74.61 C664.49 85.86, 679.95 97.96, 691.3 110.42 C702.65 122.87, 709.79 135.35, 715.79 149.34 C721.8 163.33, 727.05 180.01, 727.34 194.35 C727.62 208.68, 724.06 221.55, 717.49 235.35 C710.92 249.14, 700 264.13, 687.91 277.11 C675.82 290.1, 661.56 301.92, 644.96 313.26 C628.35 324.61, 609.04 336.07, 588.28 345.2 C567.52 354.32, 544.92 362.14, 520.4 368.02 C495.88 373.89, 467.85 377.5, 441.17 380.47 C414.49 383.44, 387.2 385.78, 360.31 385.84 C333.41 385.89, 305.95 384.22, 279.81 380.81 C253.67 377.4, 227.73 371.58, 203.46 365.37 C179.2 359.17, 155.18 352.4, 134.23 343.58 C113.28 334.75, 94.49 323.92, 77.76 312.41 C61.04 300.91, 45.33 287.26, 33.87 274.55 C22.42 261.84, 14.86 249.8, 9.05 236.13 C3.23 222.45, -1.21 206.86, -1.03 192.5 C-0.84 178.14, 3.89 163.96, 10.16 149.97 C16.42 135.97, 24.71 121.58, 36.55 108.52 C48.39 95.46, 64.13 82.89, 81.22 71.59 C98.31 60.3, 118.17 49.44, 139.08 40.77 C159.99 32.09, 182.69 25.49, 206.66 19.55 C230.63 13.61, 256.68 8.2, 282.9 5.15 C309.12 2.09, 337.1 1.46, 363.98 1.22 C390.86 0.98, 430.76 2.41, 444.18 3.72 C457.59 5.02, 445.8 5.92, 444.47 9.05" stroke="#1e1e1e" stroke-width="2" fill="none"/></g><g stroke-linecap="round"><g transform="translate(9.662310559796197 103.75) rotate(0 520.982177734375 121.875)"><path d="M1.18 0.01 C174.94 40.66, 868.1 203.34, 1041.51 244.06 M0.34 -1.03 C173.99 39.23, 866.92 201.55, 1040.32 242.1" stroke="#1e1e1e" stroke-width="2" fill="none"/></g></g><mask/><g stroke-linecap="round"><g transform="translate(851.6266660285462 117.14285278320312) rotate(0 95.98211669921875 119.19642639160156)"><path d="M0.97 0 C32.99 39.52, 161.14 198.44, 192.8 238.04 M0.02 -1.04 C31.89 38.57, 160.08 199.47, 192.29 239.39" stroke="#1e1e1e" stroke-width="2" fill="none"/></g></g><mask/></svg>