<svg version="1.1" xmlns="http://www.w3.org/2000/svg" viewBox="0 0 388.75 418.2142639160156" width="388.75" height="418.2142639160156" class="excalidraw-svg">
  <!-- svg-source:excalidraw -->
  
  <defs>
    <style class="style-fonts">
      @font-face {
        font-family: "Virgil";
        src: url("https://excalidraw.com/Virgil.woff2");
      }
      @font-face {
        font-family: "Cascadia";
        src: url("https://excalidraw.com/Cascadia.woff2");
      }
      @font-face {
        font-family: "Assistant";
        src: url("https://excalidraw.com/Assistant-Regular.woff2");
      }
    </style>
    
  </defs>
  <rect x="0" y="0" width="388.75" height="418.2142639160156" fill="#ffffff"/><g stroke-linecap="round" transform="translate(10 10) rotate(0 184.375 199.1071319580078)"><path d="M268.15 21.24 C283.52 26.07, 296.5 39.87, 308.72 52.14 C320.94 64.42, 332.62 79.51, 341.46 94.88 C350.29 110.25, 357.06 127.27, 361.73 144.35 C366.4 161.43, 369.45 179.7, 369.47 197.38 C369.48 215.05, 366.42 233.11, 361.83 250.39 C357.24 267.68, 350.34 285.47, 341.94 301.08 C333.54 316.69, 323.25 331.82, 311.42 344.06 C299.59 356.31, 285.74 366.23, 270.95 374.54 C256.16 382.85, 239.07 390.11, 222.69 393.9 C206.31 397.69, 189.26 398.42, 172.69 397.27 C156.11 396.12, 138.82 392.87, 123.25 387 C107.69 381.12, 92.73 372.32, 79.31 362.03 C65.88 351.75, 53.15 338.81, 42.72 325.27 C32.29 311.72, 23.46 297.14, 16.71 280.75 C9.97 264.35, 4.95 244.74, 2.26 226.87 C-0.43 209, -1.65 191.14, 0.59 173.5 C2.82 155.86, 8.95 137.37, 15.69 121.05 C22.42 104.72, 30.94 89.43, 40.99 75.55 C51.05 61.67, 62.66 48.31, 76.03 37.76 C89.39 27.22, 105.43 18.46, 121.2 12.28 C136.96 6.1, 153.98 1.93, 170.61 0.69 C187.23 -0.55, 203.77 0.77, 220.94 4.84 C238.11 8.92, 264.35 20.69, 273.65 25.14 C282.94 29.6, 278.18 28.85, 276.71 31.57 M150.83 3.56 C165.67 -2.78, 184.26 -2.21, 201 -0.49 C217.75 1.23, 235.45 7, 251.29 13.88 C267.14 20.76, 283.03 30.09, 296.05 40.8 C309.08 51.51, 319.32 64, 329.45 78.12 C339.58 92.24, 350.58 109.1, 356.81 125.52 C363.04 141.93, 365.17 158.83, 366.84 176.62 C368.51 194.4, 369.35 214.4, 366.85 232.21 C364.36 250.02, 358.9 267.47, 351.88 283.47 C344.86 299.46, 335.72 314.43, 324.74 328.19 C313.76 341.94, 299.8 356.1, 286 366 C272.19 375.9, 257.7 382.45, 241.91 387.58 C226.11 392.71, 207.87 395.75, 191.24 396.76 C174.6 397.76, 158.02 397.65, 142.1 393.59 C126.19 389.53, 110.37 381.22, 95.75 372.37 C81.12 363.52, 66.5 352.84, 54.33 340.51 C42.16 328.17, 31.06 314.11, 22.75 298.37 C14.43 282.63, 8.18 263.61, 4.44 246.07 C0.71 228.52, -0.22 210.6, 0.33 193.09 C0.88 175.59, 3.06 158.19, 7.75 141.04 C12.44 123.89, 19.46 105.51, 28.48 90.21 C37.5 74.92, 49.28 60.83, 61.87 49.29 C74.46 37.75, 88.83 28.73, 104.02 20.97 C119.2 13.2, 144.88 4.78, 152.98 2.69 C161.07 0.6, 152.15 5.3, 152.58 8.45" stroke="#1e1e1e" stroke-width="2" fill="none"/></g></svg>