<svg version="1.1" xmlns="http://www.w3.org/2000/svg" viewBox="0 0 1488.8188688993455 387.5257725477219" width="1488.8188688993455" height="387.5257725477219" class="excalidraw-svg">
  <!-- svg-source:excalidraw -->
  
  <defs>
    <style class="style-fonts">
      @font-face {
        font-family: "Virgil";
        src: url("https://excalidraw.com/Virgil.woff2");
      }
      @font-face {
        font-family: "Cascadia";
        src: url("https://excalidraw.com/Cascadia.woff2");
      }
      @font-face {
        font-family: "Assistant";
        src: url("https://excalidraw.com/Assistant-Regular.woff2");
      }
    </style>
    
  </defs>
  <rect x="0" y="0" width="1488.8188688993455" height="387.5257725477219" fill="#ffffff"/><g stroke-linecap="round" transform="translate(414.4245980702341 53.62639195099473) rotate(0 158.03570556640625 138.83926391601562)"><path d="M135.83 0.89 C150.99 -3.38, 170.1 -1.33, 186.31 1.33 C202.52 3.99, 218.87 9.96, 233.1 16.85 C247.32 23.75, 260.39 32.37, 271.66 42.7 C282.94 53.04, 293.48 66.19, 300.75 78.86 C308.01 91.53, 313.2 104.89, 315.27 118.74 C317.35 132.6, 316.05 147.9, 313.21 161.99 C310.37 176.07, 305.71 190.41, 298.24 203.27 C290.76 216.14, 280.02 229.23, 268.34 239.2 C256.67 249.16, 243.01 256.98, 228.2 263.07 C213.38 269.16, 195.67 273.55, 179.45 275.74 C163.23 277.92, 146.71 278.45, 130.89 276.19 C115.08 273.93, 99.08 269.11, 84.58 262.19 C70.08 255.27, 55.37 245.03, 43.9 234.66 C32.42 224.29, 22.61 212.73, 15.71 199.99 C8.82 187.25, 4.68 172.37, 2.52 158.24 C0.36 144.12, -0.02 129.18, 2.76 115.23 C5.54 101.28, 11.74 87.16, 19.22 74.57 C26.7 61.98, 35.94 49.8, 47.63 39.69 C59.32 29.57, 73.05 20.58, 89.35 13.88 C105.66 7.19, 134.56 1.25, 145.45 -0.49 C156.35 -2.23, 154.7 0.9, 154.71 3.44 M209.63 8.56 C224.83 10.76, 239.31 19.79, 252.2 27.99 C265.09 36.19, 277.36 46.02, 286.97 57.77 C296.58 69.52, 305.08 84.48, 309.86 98.5 C314.64 112.53, 315.98 127.65, 315.66 141.93 C315.33 156.21, 313.08 171, 307.9 184.16 C302.72 197.33, 294.11 209.64, 284.59 220.91 C275.06 232.18, 264.19 243.19, 250.74 251.77 C237.29 260.35, 219.79 267.91, 203.89 272.4 C187.98 276.88, 171.57 278.96, 155.31 278.68 C139.06 278.41, 121.65 275.38, 106.35 270.75 C91.06 266.11, 76.3 259.62, 63.54 250.87 C50.79 242.12, 39.12 229.78, 29.82 218.24 C20.53 206.7, 12.76 195.34, 7.77 181.62 C2.79 167.9, -0.31 150.25, -0.07 135.91 C0.18 121.57, 4.12 108.87, 9.24 95.57 C14.37 82.27, 21.06 67.95, 30.66 56.1 C40.26 44.25, 53.45 32.55, 66.86 24.45 C80.27 16.34, 95.55 11.46, 111.13 7.49 C126.71 3.51, 143.86 0.79, 160.35 0.58 C176.85 0.37, 202.17 4.44, 210.11 6.23 C218.05 8.02, 208.96 9.09, 207.99 11.33" stroke="#1e1e1e" stroke-width="2" fill="none"/></g><g stroke-linecap="round" transform="translate(1082.281775804609 78.62639195099473) rotate(0 174.10711669921875 134.8214111328125)"><path d="M255.16 16.13 C271.68 20.2, 286.72 30.06, 299.31 39.97 C311.9 49.88, 322.89 63.02, 330.7 75.6 C338.5 88.18, 343.77 101.81, 346.12 115.47 C348.48 129.13, 347.67 144.09, 344.82 157.57 C341.97 171.06, 337.1 184.01, 329.03 196.38 C320.96 208.75, 309.19 221.84, 296.42 231.8 C283.65 241.77, 268.44 249.95, 252.41 256.16 C236.37 262.36, 218.12 267.04, 200.21 269.03 C182.3 271.02, 162.72 270.64, 144.93 268.1 C127.13 265.56, 109.21 260.16, 93.44 253.78 C77.68 247.41, 62.94 239.51, 50.35 229.83 C37.76 220.16, 25.95 208.2, 17.88 195.75 C9.82 183.29, 4.56 169.1, 1.96 155.1 C-0.64 141.11, -0.83 125.6, 2.3 111.77 C5.42 97.95, 12.49 84.23, 20.69 72.13 C28.88 60.03, 38.9 48.74, 51.47 39.17 C64.04 29.61, 80.03 20.98, 96.11 14.73 C112.19 8.49, 130.12 3.76, 147.94 1.69 C165.77 -0.37, 183.62 -0.53, 203.07 2.33 C222.52 5.19, 253.2 14.7, 264.62 18.83 C276.04 22.96, 273.18 25.24, 271.59 27.11 M227.52 6.68 C244.2 8.82, 260.13 17.49, 274.84 25.66 C289.55 33.83, 304.92 44.26, 315.8 55.69 C326.67 67.12, 334.86 81.05, 340.08 94.23 C345.31 107.4, 346.95 120.99, 347.14 134.75 C347.34 148.52, 346.71 163.43, 341.27 176.8 C335.83 190.17, 325.14 203.94, 314.51 214.99 C303.87 226.04, 291.56 234.92, 277.45 243.11 C263.33 251.3, 246.73 259.62, 229.82 264.12 C212.9 268.61, 193.89 270.1, 175.95 270.08 C158.01 270.07, 139.65 268.61, 122.19 264.04 C104.73 259.48, 85.84 250.86, 71.18 242.7 C56.52 234.53, 44.82 226.18, 34.24 215.02 C23.65 203.87, 13.33 188.97, 7.69 175.75 C2.05 162.54, 0.46 149.65, 0.39 135.73 C0.32 121.8, 1.65 105.47, 7.27 92.2 C12.9 78.93, 23.43 67.25, 34.16 56.1 C44.89 44.94, 57.31 33.66, 71.65 25.28 C86 16.9, 103.26 9.97, 120.23 5.82 C137.19 1.67, 155.44 0.41, 173.44 0.4 C191.45 0.39, 219.21 4.35, 228.25 5.75 C237.29 7.15, 228.88 6.63, 227.66 8.81" stroke="#1e1e1e" stroke-width="2" fill="none"/></g><g stroke-linecap="round"><g transform="translate(10.853156419843458 15.23350865021348) rotate(0 733.4821319580078 -2.678558349609375)"><path d="M-0.85 -1.11 C243.76 -2.05, 1223.28 -4.43, 1467.97 -5.23 M0.9 0.92 C245.41 0.17, 1223.25 -2.66, 1467.54 -3.63" stroke="#1e1e1e" stroke-width="2" fill="none"/></g></g><mask/><g stroke-linecap="round"><g transform="translate(306.38889250382783 15.23350865021348) rotate(0 -3.125 180.8035888671875)"><path d="M-1.17 0.17 C-2.29 60.6, -5.1 302.24, -5.91 362.29 M0.41 -0.79 C-0.9 59.32, -5.49 300.19, -6.68 360.53" stroke="#1e1e1e" stroke-width="2" fill="none"/></g></g><mask/><g stroke-linecap="round" transform="translate(809.6996711498216 92.25350865806854) rotate(0 48.89450799851187 83.75851585751488)"><path d="M70.67 9.45 C77.06 13.61, 82.77 23.61, 87.21 33.34 C91.66 43.06, 95.74 56.05, 97.34 67.83 C98.94 79.6, 98.78 92.42, 96.81 103.99 C94.85 115.57, 90.29 128.09, 85.56 137.29 C80.84 146.5, 74.76 154.3, 68.47 159.23 C62.18 164.15, 54.66 167.08, 47.82 166.83 C40.97 166.58, 33.61 163.09, 27.39 157.74 C21.16 152.38, 14.73 144.09, 10.48 134.69 C6.22 125.3, 3.28 113.21, 1.86 101.35 C0.44 89.5, 0.38 75.42, 1.95 63.55 C3.51 51.68, 6.7 39.45, 11.24 30.15 C15.78 20.86, 22.83 12.86, 29.18 7.79 C35.52 2.72, 41.75 -1.1, 49.31 -0.27 C56.87 0.55, 69.73 9.64, 74.52 12.75 C79.3 15.85, 78.45 17.13, 78.03 18.35 M41.13 0.51 C47.38 -2.93, 53.78 -0.06, 60.68 3.33 C67.59 6.71, 77.14 12.64, 82.56 20.8 C87.99 28.97, 90.48 41.06, 93.22 52.32 C95.97 63.58, 99.39 76.26, 99.03 88.38 C98.67 100.5, 94.48 114.51, 91.06 125.02 C87.64 135.53, 83.89 144.34, 78.49 151.46 C73.1 158.58, 65.96 165.81, 58.7 167.74 C51.45 169.67, 42.09 166.43, 34.95 163.05 C27.81 159.67, 21.21 155.11, 15.87 147.46 C10.53 139.8, 5.75 128.57, 2.93 117.13 C0.1 105.68, -1.39 91.01, -1.07 78.79 C-0.76 66.57, 1.33 54.28, 4.79 43.79 C8.26 33.3, 13.58 23.17, 19.73 15.85 C25.88 8.54, 38.2 2.23, 41.7 -0.08 C45.2 -2.4, 41.05 0.22, 40.74 1.99" stroke="#1e1e1e" stroke-width="2" fill="none"/></g></svg>